<?xml version="1.0" encoding="UTF-8" standalone="no"?>
<svg
   xmlns:dc="http://purl.org/dc/elements/1.1/"
   xmlns:cc="http://creativecommons.org/ns#"
   xmlns:rdf="http://www.w3.org/1999/02/22-rdf-syntax-ns#"
   xmlns:svg="http://www.w3.org/2000/svg"
   xmlns="http://www.w3.org/2000/svg"
   xmlns:xlink="http://www.w3.org/1999/xlink"
   xmlns:sodipodi="http://sodipodi.sourceforge.net/DTD/sodipodi-0.dtd"
   xmlns:inkscape="http://www.inkscape.org/namespaces/inkscape"
   width="210mm"
   height="297mm"
   viewBox="0 0 210 297"
   version="1.1"
   id="svg8"
   inkscape:version="1.0.1 (3bc2e813f5, 2020-09-07)"
   sodipodi:docname="rysunek.svg">
  <defs
     id="defs2">
    <rect
       x="41.230588"
       y="156.18706"
       width="143.60824"
       height="15.374118"
       id="rect80" />
    <rect
       x="24.458824"
       y="211.39412"
       width="148.5"
       height="12.578824"
       id="rect64" />
    <rect
       x="69.183529"
       y="95.04"
       width="11.530588"
       height="20.265882"
       id="rect30" />
    <rect
       x="69.882353"
       y="85.605882"
       width="69.532941"
       height="56.255294"
       id="rect24" />
    <rect
       x="31.097647"
       y="49.267059"
       width="139.41529"
       height="185.53765"
       id="rect18" />
    <rect
       x="30.398824"
       y="54.158824"
       width="49.965882"
       height="61.496471"
       id="rect12" />
  </defs>
  <sodipodi:namedview
     id="base"
     pagecolor="#ffffff"
     bordercolor="#666666"
     borderopacity="1.0"
     inkscape:pageopacity="0.0"
     inkscape:pageshadow="2"
     inkscape:zoom="0.75722503"
     inkscape:cx="395.93397"
     inkscape:cy="571.39682"
     inkscape:document-units="mm"
     inkscape:current-layer="layer1"
     inkscape:document-rotation="0"
     showgrid="false"
     inkscape:window-width="1920"
     inkscape:window-height="1017"
     inkscape:window-x="-8"
     inkscape:window-y="-8"
     inkscape:window-maximized="1" />
  <metadata
     id="metadata5">
    <rdf:RDF>
      <cc:Work
         rdf:about="">
        <dc:format>image/svg+xml</dc:format>
        <dc:type
           rdf:resource="http://purl.org/dc/dcmitype/StillImage" />
        <dc:title></dc:title>
      </cc:Work>
    </rdf:RDF>
  </metadata>
  <g
     inkscape:label="Warstwa 1"
     inkscape:groupmode="layer"
     id="layer1">
    <text
       xml:space="preserve"
       id="text10"
       style="font-style:normal;font-weight:normal;font-size:10.5833px;line-height:1.25;font-family:sans-serif;white-space:pre;shape-inside:url(#rect12);fill:#000000;fill-opacity:1;stroke:none;" />
    <g
       id="g44"
       transform="translate(17.470588,-5.5905882)">
      <g
         aria-label="A"
         transform="matrix(8.3645558,0,0,10.193537,-229.62934,-468.09858)"
         id="text16"
         style="font-style:normal;font-weight:normal;font-size:10.5833px;line-height:1.25;font-family:sans-serif;white-space:pre;shape-inside:url(#rect18);fill:#000000;fill-opacity:1;stroke:none" />
      <g
         aria-label="A"
         transform="matrix(7.9691433,0,0,10.148248,-491.44309,-834.21014)"
         id="text22"
         style="font-style:normal;font-weight:normal;font-size:10.5833px;line-height:1.25;font-family:sans-serif;white-space:pre;shape-inside:url(#rect24);fill:#000000;fill-opacity:1;stroke:none">
        <path
           id="path37"
           style="stroke-width:33.989"
           transform="matrix(0.03320098,0,0,0.02607182,61.492864,82.546688)"
           d="m 216.25,179.23242 -93.12109,297.24414 h 34.79882 l 22.2168,-76.25195 h 97.90625 l -22.85937,76.24805 h 33.15429 l 11.59375,-149.25977 12.3711,149.26367 h 34.30859 l -23.74023,-75.91601 h 91.38476 l 21.16797,75.91211 h 32.68555 L 379.55469,180.54883 H 343.91016 L 299.93945,327.21289 253.66211,179.23242 Z m 18.625,39.61914 44.92578,147.92578 h -89.68945 z m 126.7793,1.14063 42.80273,147.26953 h -85.44922 z"
           sodipodi:nodetypes="ccccccccccccccccccccccccccc" />
      </g>
    </g>
    <text
       xml:space="preserve"
       id="text28"
       style="fill:black;fill-opacity:1;line-height:1.25;stroke:none;font-family:sans-serif;font-style:normal;font-weight:normal;font-size:10.58333333px;white-space:pre;shape-inside:url(#rect30);" />
    <text
       xml:space="preserve"
       id="text62"
       style="fill:black;fill-opacity:1;line-height:1.25;stroke:none;font-family:sans-serif;font-style:normal;font-weight:normal;font-size:10.58333333px;white-space:pre;shape-inside:url(#rect64);" />
    <path
       style="fill:none;stroke:#000000;stroke-width:0.264583px;stroke-linecap:butt;stroke-linejoin:miter;stroke-opacity:1"
       d="m 27.254118,202.65882 c 1.803916,-4.25648 5.682318,-5.89258 9.434118,-8.03647 1.318506,-0.75343 2.461053,-1.81748 3.843528,-2.44588 1.208939,-0.54952 2.600113,-0.58196 3.84353,-1.04824 1.561426,-0.58553 2.978558,-1.51729 4.542354,-2.09647 7.90821,-2.92897 16.421809,-3.76592 24.808232,-3.1447 12.252185,0.90756 22.57933,5.57067 34.24235,8.38588 4.84518,1.16952 6.84204,1.1364 11.88,1.74706 3.27035,0.3964 6.49974,1.13494 9.78353,1.39765 1.3932,0.11145 2.79674,-0.0635 4.19294,0 3.47014,0.15773 6.99253,0.68177 10.48236,0.34941 5.71371,-0.54417 11.57229,-2.1069 17.12117,-3.49412 3.69143,-0.92286 7.23235,-1.9449 10.83177,-3.14471 2.09983,-0.69994 5.40796,-0.51619 6.98823,-2.09647"
       id="path76" />
    <text
       xml:space="preserve"
       id="text78"
       style="font-style:normal;font-weight:normal;font-size:10.5833px;line-height:1.25;font-family:sans-serif;white-space:pre;fill:#000000;fill-opacity:1;stroke:none"><textPath
         xlink:href="#path76"
         id="textPath84">Tekst na ścieżce aaaaaaaaaaa</textPath></text>
  </g>
</svg>
